<svg width="75" height="72" viewBox="0 0 75 72" fill="none" xmlns="http://www.w3.org/2000/svg">
<path d="M34.8228 11.5673C34.8228 11.5673 47.7811 7.98236 55.4251 18.3555L69.2767 10.8713C69.2767 10.8713 59.1616 -4.29933 34.8228 1.20161V11.5673Z" fill="#00C853"/>
<path d="M30.9524 12.7049L28.7344 3.09512C28.7344 3.09512 16.8925 6.98694 7.99805 18.4903L17.8452 22.5318C17.8452 22.5243 22.1175 15.9681 30.9524 12.7049Z" fill="#FF9100"/>
<path d="M15.7686 25.8772C15.7686 25.8772 14.0046 28.9907 13.4984 33.4214L0.316772 35.8538C0.316772 35.8538 0.8229 30.6896 4.52954 23.7592L15.7686 25.8772Z" fill="#F44336"/>
<path d="M13.5356 37.0587C13.5356 37.0587 14.2427 47.4394 25.3031 50.3283C34.8228 52.8131 42.5859 48.4947 42.5859 48.4947L33.9594 30.1433C33.9594 30.1433 33.6542 29.6343 34.4432 29.0131C35.2247 28.3919 35.6862 28.8111 35.6862 28.8111L53.0136 40.262C53.0136 40.262 60.6577 31.2884 57.0329 21.5663L72.4623 16.0728C72.4623 16.0728 80.6274 31.468 66.7833 49.3703L74.1296 54.2276C74.1296 54.2276 74.9707 54.7964 74.0105 55.8143L54.6585 70.9026C54.6585 70.9026 53.7058 71.6585 53.036 70.723L49.5228 63.2387C49.5228 63.2387 34.473 71.4115 18.649 65.9705C2.22964 60.3198 -0.114923 45.4261 0.00416609 41.8861L13.5356 37.0587Z" fill="white"/>
</svg>
